# xmcd CD database file
#
# Track frame offsets:
#	150
#	9678
#	27748
#	44037
#	58986
#	74940
#	86192
#	91320
#	103311
#	119706
#	129839
#	144445
#	156193
#	167692
#	190364
#	203554
#
# Disc length: 3008 seconds
#
# Revision: 2
# Processed by: cddbd v1.4b41PL1 Copyright (c) Steve Scherf et al.
# Submitted via: Feurio! 1.60 - http://www.feurio.com
#
DISCID=db0bbe10,fa0bbe10
DTITLE=NINA SIMONE - BEST OF
DYEAR=1900
DGENRE=
TTITLE0=Brown Eyed Handsome man
TTITLE1=Mood Indigo
TTITLE2=My Baby just cares for me
TTITLE3=Ooh, child
TTITLE4=Solitude
TTITLE5=Turn me on
TTITLE6=Willow Weep for me
TTITLE7=Nobody knows you, ...
TTITLE8=Here comes the sun
TTITLE9=Ain`t got no, I got life
TTITLE10=He`s funny that way
TTITLE11=I put a spell on you
TTITLE12=I want a little in my bowl
TTITLE13=Mr. Bojangles
TTITLE14=Feeling good
TTITLE15=Just like a woman
EXTD=
EXTT0=
EXTT1=
EXTT2=
EXTT3=
EXTT4=
EXTT5=
EXTT6=
EXTT7=
EXTT8=
EXTT9=
EXTT10=
EXTT11=
EXTT12=
EXTT13=
EXTT14=
EXTT15=
PLAYORDER=
